<?xml version="1.0" encoding="utf-8"?>
<!-- Generator: Adobe Illustrator 16.0.0, SVG Export Plug-In . SVG Version: 6.00 Build 0)  -->
<svg version="1.2" baseProfile="tiny" xmlns="http://www.w3.org/2000/svg" xmlns:xlink="http://www.w3.org/1999/xlink" x="0px"
	 y="0px" width="316px" height="62px" viewBox="0 0 316 62" xml:space="preserve">
<g id="Layer_2">
	<rect x="71.667" y="4" fill="#3CB371" width="52" height="6"/>
	<linearGradient id="SVGID_1_" gradientUnits="userSpaceOnUse" x1="22.1665" y1="7" x2="71.6679" y2="7">
		<stop  offset="0" style="stop-color:#FFFFFF"/>
		<stop  offset="1" style="stop-color:#32C5D2"/>
	</linearGradient>
	<rect x="12.667" y="4" fill="url(#SVGID_1_)" width="52" height="6"/>
	<polygon fill="#E7505A" points="183.667,4.95 184.125,4 131.667,4 131.667,10 181.102,10 	"/>
</g>
<g id="Layer_1">
	<g>
		<path fill="#333333" d="M22.941,15.679l-5.684,33.428c-0.45,3.535-1.724,6.289-3.823,8.262c-2.1,1.973-4.81,2.939-8.13,2.9
			c-1.328-0.039-2.793-0.225-4.395-0.557l0.674-6.738c0.977,0.215,1.827,0.342,2.549,0.381c2.598,0.039,4.18-1.367,4.746-4.219
			l5.742-33.457H22.941z M15.412,7.622c-0.04-1.289,0.371-2.358,1.23-3.208c0.859-0.85,1.963-1.293,3.311-1.333
			c1.348,0,2.456,0.4,3.325,1.201c0.869,0.801,1.323,1.816,1.362,3.047c0.039,1.309-0.371,2.388-1.23,3.237
			c-0.86,0.85-1.963,1.294-3.311,1.333c-1.23,0.04-2.31-0.332-3.237-1.113C15.934,10.005,15.451,8.951,15.412,7.622z"/>
		<path fill="#333333" d="M39.816,15.063c3.281,0.078,5.791,1.406,7.529,3.984l1.348-3.398l7.383,0.029l-7.617,43.887h-8.32
			l2.959-14.971c-2.208,2.324-4.775,3.447-7.705,3.369c-1.973-0.02-3.702-0.537-5.186-1.553c-1.484-1.016-2.632-2.485-3.442-4.409
			c-0.811-1.923-1.255-4.038-1.333-6.343c-0.059-1.23-0.029-2.432,0.088-3.604l0.176-1.289c0.469-3.281,1.372-6.152,2.71-8.613
			c1.337-2.461,2.978-4.272,4.922-5.435C35.27,15.557,37.433,15.005,39.816,15.063z M33.693,35.827
			c0.195,3.482,1.582,5.252,4.16,5.311c2.324,0.078,4.316-0.948,5.977-3.081l2.402-13.204c-0.762-1.897-2.295-2.885-4.6-2.963
			c-2.07-0.059-3.779,0.758-5.127,2.45s-2.217,4.054-2.607,7.086C33.703,33.441,33.634,34.908,33.693,35.827z"/>
		<path fill="#333333" d="M76.876,44.097c-2.344,2.637-5.254,3.926-8.73,3.867c-3.047-0.039-5.352-1.133-6.914-3.281
			c-1.563-2.148-2.168-4.98-1.816-8.496l3.428-20.508h8.262l-3.486,20.62c-0.078,0.646-0.088,1.251-0.029,1.818
			c0.195,1.956,1.279,2.963,3.252,3.021c2.559,0.078,4.677-0.909,6.357-2.962l3.955-22.497h8.32l-5.508,31.699h-7.705L76.876,44.097
			z"/>
		<path fill="#333333" d="M105.177,47.964c-2.773-0.02-5.229-0.698-7.368-2.036s-3.735-3.174-4.79-5.508
			c-1.055-2.333-1.465-4.907-1.23-7.72l0.088-1.172c0.293-3.086,1.191-5.918,2.695-8.496c1.504-2.578,3.438-4.565,5.801-5.962
			c2.363-1.396,4.98-2.055,7.852-1.978c4.082,0.078,7.173,1.58,9.272,4.504c2.099,2.925,2.896,6.626,2.388,11.106l-0.469,3.609
			H99.992c-0.078,2.051,0.42,3.691,1.494,4.922c1.074,1.23,2.539,1.865,4.395,1.904c3.007,0.078,5.644-1.094,7.91-3.516l3.779,4.688
			c-1.191,1.797-2.911,3.198-5.156,4.204C110.167,47.52,107.755,48.003,105.177,47.964z M107.814,21.919
			c-1.523-0.039-2.876,0.439-4.058,1.436c-1.182,0.996-2.241,2.725-3.179,5.186h11.367l0.176-0.762
			c0.117-0.781,0.127-1.523,0.029-2.227c-0.195-1.132-0.674-2.017-1.436-2.651C109.953,22.266,108.986,21.938,107.814,21.919z"/>
		<path fill="#333333" d="M143.585,23.618c-1.133-0.195-2.061-0.293-2.783-0.293c-2.949-0.078-5.284,1.025-7.002,3.311
			l-3.662,20.742h-8.262l5.508-31.699l7.764-0.029l-0.762,3.867c1.992-2.988,4.453-4.482,7.383-4.482c0.82,0,1.777,0.137,2.871,0.41
			L143.585,23.618z"/>
		<path fill="#333333" d="M157.384,35.308l9.053-19.629h9.199l-18.545,36.475c-1.329,2.793-2.886,4.844-4.673,6.152
			s-3.853,1.963-6.196,1.963c-0.918,0-2.246-0.205-3.984-0.615l0.615-6.445l1.143,0.059c2.695,0.078,4.668-0.908,5.918-2.959
			l1.816-3.369l-5.186-31.26h8.555L157.384,35.308z"/>
		<path fill="#333333" d="M194.738,39.116c0.313-2.695-1.328-4.648-4.922-5.859l-5.039-1.494c-4.629-1.563-6.816-4.17-6.563-7.822
			c0.137-2.637,1.353-4.78,3.647-6.431c2.295-1.65,5.024-2.456,8.188-2.417c3.105,0.04,5.625,0.913,7.559,2.622
			c1.934,1.709,2.832,3.989,2.695,6.841h-3.457c0.117-1.894-0.474-3.438-1.772-4.629c-1.299-1.191-3.022-1.806-5.171-1.846
			c-2.227,0-4.102,0.523-5.625,1.567c-1.523,1.045-2.383,2.427-2.578,4.146c-0.293,2.52,1.25,4.288,4.629,5.303l3.662,1.055
			l1.963,0.674c4.414,1.66,6.494,4.365,6.24,8.115c-0.156,2.539-1.255,4.624-3.296,6.255s-4.673,2.544-7.896,2.739l-1.201,0.029
			c-2.129-0.039-4.053-0.454-5.771-1.245s-3.037-1.899-3.955-3.325c-0.919-1.425-1.318-3.066-1.201-4.922l3.486,0.029
			c0,1.992,0.674,3.564,2.021,4.717s3.203,1.748,5.566,1.787c2.344,0,4.336-0.532,5.977-1.597S194.503,40.914,194.738,39.116z"/>
		<path fill="#333333" d="M216.74,7.563l-1.406,8.115h6.357l-0.498,2.871h-6.357l-3.516,21.152l-0.059,1.816
			c0,2.129,0.977,3.223,2.93,3.281c0.605,0.02,1.553-0.049,2.842-0.205l-0.146,2.871c-1.152,0.332-2.324,0.479-3.516,0.439
			c-2.051-0.039-3.545-0.757-4.482-2.153s-1.279-3.423-1.025-6.079l3.486-21.123h-5.684l0.527-2.871h5.625l1.436-8.115H216.74z"/>
		<path fill="#333333" d="M236.017,47.964c-2.539-0.039-4.736-0.747-6.592-2.124s-3.218-3.252-4.087-5.625s-1.177-4.937-0.923-7.69
			l0.088-0.996c0.273-2.93,1.143-5.717,2.607-8.364c1.465-2.646,3.32-4.668,5.566-6.064c2.246-1.396,4.648-2.065,7.207-2.007
			c2.363,0.04,4.36,0.684,5.991,1.934c1.631,1.25,2.817,2.988,3.56,5.215s0.977,4.688,0.703,7.383l-0.234,2.139H227.96l-0.088,0.703
			c-0.293,2.129-0.137,4.165,0.469,6.108c0.605,1.944,1.597,3.486,2.974,4.629s3.032,1.733,4.966,1.772
			c1.875,0.059,3.564-0.303,5.068-1.084c1.504-0.78,2.891-1.826,4.16-3.135l2.051,1.67c-1.426,1.836-3.12,3.228-5.083,4.175
			S238.361,48.003,236.017,47.964z M239.708,18.081c-2.539-0.098-4.814,0.801-6.826,2.695c-2.012,1.895-3.525,4.561-4.541,7.998
			l18.398,0.029l0.088-0.439c0.352-2.773-0.137-5.161-1.465-7.163C244.035,19.199,242.15,18.159,239.708,18.081z"/>
		<path fill="#333333" d="M267.101,47.993c-1.816-0.039-3.53-0.425-5.142-1.157s-2.915-1.88-3.911-3.442l-2.93,16.172h-3.457
			l7.617-43.887h3.223l-0.82,4.482c2.754-3.496,6.201-5.186,10.342-5.068c2.969,0.078,5.283,1.182,6.943,3.311
			c1.66,2.129,2.52,5.146,2.578,9.053c0.02,1.23-0.039,2.422-0.176,3.574l-0.117,0.82c-0.488,3.418-1.406,6.368-2.754,8.848
			c-1.348,2.48-2.988,4.331-4.922,5.552S269.484,48.052,267.101,47.993z M277.882,31.045l0.176-2.78
			c0.059-3.122-0.508-5.57-1.699-7.346c-1.191-1.775-2.959-2.702-5.303-2.78c-2.051-0.039-3.911,0.464-5.581,1.507
			c-1.67,1.044-3.081,2.561-4.233,4.551l-2.607,15.247c0.625,1.795,1.616,3.161,2.974,4.098s2.983,1.434,4.878,1.492
			c2.832,0.098,5.229-0.96,7.192-3.175s3.286-5.302,3.97-9.263L277.882,31.045z"/>
		<path fill="#333333" d="M306.388,39.116c0.313-2.695-1.328-4.648-4.922-5.859l-5.039-1.494c-4.629-1.563-6.816-4.17-6.563-7.822
			c0.137-2.637,1.353-4.78,3.647-6.431c2.295-1.65,5.024-2.456,8.188-2.417c3.105,0.04,5.625,0.913,7.559,2.622
			c1.934,1.709,2.832,3.989,2.695,6.841h-3.457c0.117-1.894-0.474-3.438-1.772-4.629c-1.299-1.191-3.022-1.806-5.171-1.846
			c-2.227,0-4.102,0.523-5.625,1.567c-1.523,1.045-2.383,2.427-2.578,4.146c-0.293,2.52,1.25,4.288,4.629,5.303l3.662,1.055
			l1.963,0.674c4.414,1.66,6.494,4.365,6.24,8.115c-0.156,2.539-1.255,4.624-3.296,6.255s-4.673,2.544-7.896,2.739l-1.201,0.029
			c-2.129-0.039-4.053-0.454-5.771-1.245s-3.037-1.899-3.955-3.325c-0.918-1.425-1.318-3.066-1.201-4.922l3.486,0.029
			c0,1.992,0.674,3.564,2.021,4.717s3.203,1.748,5.566,1.787c2.344,0,4.336-0.532,5.977-1.597S306.154,40.914,306.388,39.116z"/>
	</g>
	<g>
	</g>
	<g>
	</g>
	<g>
	</g>
	<g>
	</g>
	<g>
	</g>
	<g>
	</g>
	<g>
	</g>
	<g>
	</g>
	<g>
	</g>
	<g>
	</g>
	<g>
	</g>
	<g>
	</g>
	<g>
	</g>
	<g>
	</g>
	<g>
	</g>
</g>
</svg>
